<svg width="20" height="20" viewBox="0 0 20 20" fill="currentColor" xmlns="http://www.w3.org/2000/svg">
<path d="M16.6668 14.9998C16.6668 16.8415 13.6818 18.3332 10.0002 18.3332C6.3185 18.3332 3.3335 16.8415 3.3335 14.9998V11.6448C3.75183 12.159 4.346 12.5857 5.00683 12.9157C6.31683 13.5707 8.0835 13.9582 10.0002 13.9582C11.9168 13.9582 13.6835 13.5707 14.9935 12.9165C15.6543 12.5857 16.2485 12.1582 16.6668 11.6448V14.9998Z" fill="currentColor"/>
<path d="M10.0002 8.95817C11.9168 8.95817 13.6835 8.57067 14.9935 7.9165C15.6543 7.58567 16.2485 7.15817 16.6668 6.64484V9.99984C16.6668 10.4165 15.1785 11.3257 14.4343 11.7982C13.3318 12.349 11.7652 12.7082 10.0002 12.7082C8.23516 12.7082 6.6685 12.3498 5.566 11.7982C4.5835 11.3065 3.3335 10.4165 3.3335 9.99984V6.64484C3.75183 7.159 4.346 7.58567 5.00683 7.91567C6.31683 8.57067 8.0835 8.95817 10.0002 8.95817Z" fill="currentColor"/>
<path d="M14.4343 6.79817C13.3318 7.349 11.7652 7.70817 10.0002 7.70817C8.23516 7.70817 6.6685 7.34984 5.566 6.79817C5.13683 6.62984 4.17183 6.09567 3.50183 5.23234C3.44482 5.16007 3.4034 5.07678 3.38016 4.98772C3.35693 4.89865 3.35239 4.80574 3.36683 4.71484C3.386 4.5915 3.41266 4.464 3.44683 4.38484C4.0235 2.83817 6.7385 1.6665 10.0002 1.6665C13.2618 1.6665 15.9768 2.83817 16.5535 4.38484C16.5877 4.464 16.6143 4.5915 16.6335 4.71484C16.6479 4.80574 16.6434 4.89865 16.6202 4.98772C16.5969 5.07678 16.5555 5.16007 16.4985 5.23234C15.8285 6.09567 14.8635 6.62984 14.4343 6.79817Z" fill="currentColor"/>
</svg>
