<svg width="20" height="20" viewBox="0 0 20 20" fill="currentColor" xmlns="http://www.w3.org/2000/svg">
<path fill-rule="evenodd" clip-rule="evenodd" d="M1.72484 4.38199C1.6665 4.68866 1.6665 5.05699 1.6665 5.79199V11.667C1.6665 14.8095 1.6665 16.3812 2.64317 17.357C3.61984 18.3328 5.19067 18.3337 8.33317 18.3337H11.6665C14.809 18.3337 16.3807 18.3337 17.3565 17.357C18.3323 16.3803 18.3332 14.8095 18.3332 11.667V9.83199C18.3332 7.63866 18.3332 6.54116 17.6915 5.82866C17.6326 5.76291 17.5703 5.70032 17.5048 5.64116C16.7923 5.00033 15.6948 5.00033 13.5015 5.00033H13.1898C12.229 5.00033 11.7482 5.00033 11.2998 4.87283C11.0538 4.8025 10.8167 4.70407 10.5932 4.57949C10.1865 4.35366 9.8465 4.01283 9.1665 3.33366L8.70817 2.87533C8.47984 2.64699 8.3665 2.53366 8.2465 2.43366C7.73039 2.00586 7.09728 1.74361 6.42984 1.68116C6.27484 1.66699 6.11317 1.66699 5.7915 1.66699C5.05567 1.66699 4.68817 1.66699 4.3815 1.72533C3.72304 1.84968 3.11734 2.16961 2.64343 2.64337C2.16951 3.11713 1.8494 3.72356 1.72484 4.38199ZM10.2082 8.33366C10.2082 8.1679 10.274 8.00893 10.3912 7.89172C10.5084 7.77451 10.6674 7.70866 10.8332 7.70866H14.9998C15.1656 7.70866 15.3246 7.77451 15.4418 7.89172C15.559 8.00893 15.6248 8.1679 15.6248 8.33366C15.6248 8.49942 15.559 8.65839 15.4418 8.7756C15.3246 8.89281 15.1656 8.95866 14.9998 8.95866H10.8332C10.6674 8.95866 10.5084 8.89281 10.3912 8.7756C10.274 8.65839 10.2082 8.49942 10.2082 8.33366Z" fill="currentColor"/>
</svg>
