<svg width="32" height="32" viewBox="0 0 32 32" fill="none" xmlns="http://www.w3.org/2000/svg">
<path d="M12.0027 9.33333C12.0187 6.43333 12.148 4.86267 13.172 3.83867C14.344 2.66667 16.2293 2.66667 20 2.66667H21.3333C25.1053 2.66667 26.9907 2.66667 28.1627 3.83867C29.3333 5.00933 29.3333 6.896 29.3333 10.6667V21.3333C29.3333 25.104 29.3333 26.9907 28.1627 28.1613C26.9893 29.3333 25.1053 29.3333 21.3333 29.3333H20C16.2293 29.3333 14.344 29.3333 13.172 28.1613C12.148 27.1373 12.0187 25.5667 12.0027 22.6667" stroke="currentColor" stroke-width="2" stroke-linecap="round"/>
<path d="M2.66667 16L20 16M20 16L15.3333 20M20 16L15.3333 12" stroke="currentColor" stroke-width="2" stroke-linecap="round" stroke-linejoin="round"/>
</svg>
