<svg width="40" height="40" viewBox="0 0 40 40" fill="none" xmlns="http://www.w3.org/2000/svg">
<g clip-path="url(#clip0_2287_14569)">
<path d="M0 0H40V40H0V0Z" fill="#F5F6F7"/>
<path d="M20 24.5455C27.5311 24.5455 33.6361 30.6506 33.6362 38.1817C33.6362 38.7982 33.5949 39.4052 33.5156 40H6.48438C6.40512 39.4052 6.36343 38.7982 6.36343 38.1817C6.36349 30.6506 12.4689 24.5455 20 24.5455Z" fill="#D4D4D4"/>
<path d="M20 8.63619C24.0166 8.6362 27.2727 11.8924 27.2728 15.909C27.2728 19.9256 24.0166 23.1817 20 23.1817C15.9834 23.1817 12.7272 19.9256 12.7272 15.909C12.7273 11.8924 15.9834 8.63619 20 8.63619Z" fill="#D4D4D4"/>
</g>
<defs>
<clipPath id="clip0_2287_14569">
<rect width="40" height="40" rx="4" fill="white"/>
</clipPath>
</defs>
</svg>
