<svg width="32" height="32" viewBox="0 0 32 32" fill="currentcolor" xmlns="http://www.w3.org/2000/svg">
<path fill-rule="evenodd" clip-rule="evenodd" d="M13.0373 28H18.9627C23.124 28 25.2053 28 26.7 27.02C27.3451 26.5975 27.9006 26.052 28.3347 25.4147C29.3333 23.948 29.3333 21.904 29.3333 17.8187C29.3333 13.7333 29.3333 11.6893 28.3347 10.2227C27.9006 9.58532 27.3451 9.03981 26.7 8.61733C25.74 7.98667 24.5373 7.76133 22.696 7.68133C21.8173 7.68133 21.0613 7.028 20.8893 6.18133C20.7579 5.56116 20.4163 5.00538 19.9225 4.60794C19.4286 4.21049 18.8126 3.99575 18.1787 4H13.8213C12.504 4 11.3693 4.91333 11.1107 6.18133C10.9387 7.028 10.1827 7.68133 9.30399 7.68133C7.46399 7.76133 6.26132 7.988 5.29999 8.61733C4.65537 9.03995 4.10035 9.58545 3.66666 10.2227C2.66666 11.6893 2.66666 13.732 2.66666 17.8187C2.66666 21.9053 2.66666 23.9467 3.66532 25.4147C4.09732 26.0493 4.65199 26.5947 5.29999 27.02C6.79466 28 8.87599 28 13.0373 28ZM16 12.364C12.932 12.364 10.444 14.8053 10.444 17.8173C10.444 20.8293 12.9333 23.2747 16 23.2747C19.0667 23.2747 21.556 20.832 21.556 17.82C21.556 14.808 19.0667 12.364 16 12.364ZM16 14.5453C14.16 14.5453 12.6667 16.0107 12.6667 17.8187C12.6667 19.6253 14.16 21.0907 16 21.0907C17.84 21.0907 19.3333 19.6253 19.3333 17.8187C19.3333 16.012 17.84 14.5453 16 14.5453ZM22.296 13.4547C22.296 12.852 22.7933 12.364 23.408 12.364H24.888C25.5013 12.364 26 12.852 26 13.4547C25.9972 13.7465 25.8786 14.0253 25.6704 14.2298C25.4621 14.4343 25.1812 14.5478 24.8893 14.5453H23.408C23.2634 14.5467 23.1199 14.5196 22.9857 14.4656C22.8515 14.4115 22.7294 14.3316 22.6261 14.2303C22.5228 14.129 22.4405 14.0084 22.3839 13.8753C22.3273 13.7422 22.2974 13.5993 22.296 13.4547Z" fill="currentcolor"/>
</svg>
