<svg width="32" height="32" viewBox="0 0 32 32" fill="currentColor" xmlns="http://www.w3.org/2000/svg">
<path d="M2.66667 21.5253V6.664C2.66667 5.2 3.848 4.01066 5.30933 4.1C6.612 4.18 8.15067 4.33866 9.33333 4.64933C10.7333 5.01866 12.3947 5.80533 13.7093 6.5C14.1187 6.71733 14.5547 6.86666 15 6.952V27.1907C14.5917 27.1013 14.1978 26.9559 13.8293 26.7587C12.496 26.0493 10.776 25.2253 9.33333 24.844C8.164 24.536 6.64533 24.3773 5.35333 24.2973C3.87467 24.204 2.66667 23.008 2.66667 21.5253ZM17 27.1907C17.4083 27.1013 17.8022 26.9559 18.1707 26.7587C19.504 26.0493 21.224 25.2253 22.6667 24.844C23.836 24.536 25.3547 24.3773 26.6467 24.2973C28.1253 24.204 29.3333 23.0067 29.3333 21.524V6.57866C29.3333 5.14933 28.2053 3.97466 26.776 4.02533C25.2707 4.07866 23.396 4.23333 22 4.652C20.7893 5.01333 19.38 5.74 18.232 6.40533C17.8469 6.62763 17.4321 6.79375 17 6.89866V27.1907Z" fill="currentColor"/>
</svg>
