<svg width="32" height="32" viewBox="0 0 32 32" fill="currentColor" xmlns="http://www.w3.org/2000/svg">
<path fill-rule="evenodd" clip-rule="evenodd" d="M4.61866 4.61866C2.66666 6.57333 2.66666 9.71466 2.66666 16C2.66666 22.2853 2.66666 25.428 4.61866 27.38C6.57333 29.3333 9.71466 29.3333 16 29.3333C22.2853 29.3333 25.428 29.3333 27.38 27.38C29.3333 25.4293 29.3333 22.2853 29.3333 16C29.3333 9.71466 29.3333 6.572 27.38 4.61866C25.4293 2.66666 22.2853 2.66666 16 2.66666C9.71466 2.66666 6.572 2.66666 4.61866 4.61866ZM14.0587 10.0227C14.1492 9.9275 14.2201 9.81544 14.2673 9.69287C14.3145 9.57031 14.3371 9.43965 14.3338 9.30835C14.3306 9.17704 14.3015 9.04767 14.2482 8.92762C14.1949 8.80757 14.1185 8.69919 14.0233 8.60866C13.9282 8.51814 13.8161 8.44725 13.6935 8.40003C13.571 8.35281 13.4403 8.3302 13.309 8.33348C13.1777 8.33676 13.0483 8.36587 12.9283 8.41915C12.8082 8.47243 12.6999 8.54883 12.6093 8.644L9.524 11.884L8.724 11.044C8.63445 10.945 8.52601 10.865 8.40505 10.8086C8.28409 10.7522 8.15307 10.7206 8.0197 10.7157C7.88634 10.7107 7.75333 10.7325 7.62852 10.7797C7.5037 10.827 7.3896 10.8987 7.29295 10.9907C7.1963 11.0828 7.11904 11.1932 7.06573 11.3155C7.01243 11.4379 6.98415 11.5697 6.98257 11.7031C6.98099 11.8366 7.00614 11.969 7.05654 12.0926C7.10693 12.2161 7.18155 12.3284 7.276 12.4227L8.8 14.0227C8.89339 14.1207 9.00572 14.1987 9.13017 14.252C9.25462 14.3054 9.3886 14.3329 9.524 14.3329C9.65939 14.3329 9.79337 14.3054 9.91783 14.252C10.0423 14.1987 10.1546 14.1207 10.248 14.0227L14.0587 10.0227ZM17.3333 11C17.0681 11 16.8138 11.1054 16.6262 11.2929C16.4387 11.4804 16.3333 11.7348 16.3333 12C16.3333 12.2652 16.4387 12.5196 16.6262 12.7071C16.8138 12.8946 17.0681 13 17.3333 13H24C24.2652 13 24.5196 12.8946 24.7071 12.7071C24.8946 12.5196 25 12.2652 25 12C25 11.7348 24.8946 11.4804 24.7071 11.2929C24.5196 11.1054 24.2652 11 24 11H17.3333ZM14.0573 19.356C14.1518 19.2617 14.2264 19.1495 14.2768 19.0259C14.3272 18.9023 14.3523 18.7699 14.3508 18.6365C14.3492 18.503 14.3209 18.3712 14.2676 18.2489C14.2143 18.1265 14.137 18.0161 14.0404 17.9241C13.9437 17.832 13.8296 17.7603 13.7048 17.713C13.58 17.6658 13.447 17.644 13.3136 17.649C13.1803 17.6539 13.0492 17.6856 12.9283 17.742C12.8073 17.7983 12.6989 17.8784 12.6093 17.9773L9.524 21.2173L8.724 20.3773C8.63445 20.2784 8.52601 20.1983 8.40505 20.1419C8.28409 20.0856 8.15307 20.0539 8.0197 20.049C7.88634 20.044 7.75333 20.0658 7.62852 20.113C7.5037 20.1603 7.3896 20.232 7.29295 20.3241C7.1963 20.4161 7.11904 20.5265 7.06573 20.6489C7.01243 20.7712 6.98415 20.903 6.98257 21.0365C6.98099 21.1699 7.00614 21.3023 7.05654 21.4259C7.10693 21.5495 7.18155 21.6617 7.276 21.756L8.8 23.356C8.89339 23.454 9.00572 23.5321 9.13017 23.5854C9.25462 23.6387 9.3886 23.6662 9.524 23.6662C9.65939 23.6662 9.79337 23.6387 9.91783 23.5854C10.0423 23.5321 10.1546 23.454 10.248 23.356L14.0573 19.356ZM17.3333 20.3333C17.0681 20.3333 16.8138 20.4387 16.6262 20.6262C16.4387 20.8138 16.3333 21.0681 16.3333 21.3333C16.3333 21.5985 16.4387 21.8529 16.6262 22.0404C16.8138 22.228 17.0681 22.3333 17.3333 22.3333H24C24.2652 22.3333 24.5196 22.228 24.7071 22.0404C24.8946 21.8529 25 21.5985 25 21.3333C25 21.0681 24.8946 20.8138 24.7071 20.6262C24.5196 20.4387 24.2652 20.3333 24 20.3333H17.3333Z" fill="currentColor"/>
</svg>
