<svg width="14" height="16" viewBox="0 0 14 16" fill="none" xmlns="http://www.w3.org/2000/svg">
<path d="M6.58793 4.86223C6.68837 4.74745 6.82201 4.67849 6.96378 4.66831C7.10554 4.65812 7.24569 4.7074 7.35793 4.8069L7.41276 4.86223L10.9128 8.86223L10.9612 8.9249L10.9927 8.97623L11.0242 9.04023L11.0341 9.06423L11.0498 9.1089L11.0685 9.1809L11.0743 9.21623L11.0802 9.25623L11.0825 9.29423L11.0837 9.33357L11.0825 9.3729L11.0796 9.41157L11.0743 9.45157L11.0685 9.48623L11.0498 9.55823L11.0341 9.6029L10.9933 9.6909L10.9553 9.7509L10.9128 9.8049L10.8579 9.86023L10.813 9.89623L10.757 9.93223L10.736 9.94357L10.6969 9.96157L10.6339 9.9829L10.603 9.98957L10.568 9.99623L10.5348 9.9989L10.5003 10.0002H3.50034C3.00334 10.0002 2.74376 9.3429 3.04359 8.91823L3.08793 8.86223L6.58793 4.86223Z" fill="#737373"/>
</svg>
