<svg width="32" height="32" viewBox="0 0 32 32" fill="none" xmlns="http://www.w3.org/2000/svg">
<path fill-rule="evenodd" clip-rule="evenodd" d="M9.33333 2.33333C9.59855 2.33333 9.8529 2.43869 10.0404 2.62622C10.228 2.81376 10.3333 3.06811 10.3333 3.33333V4.35066C11.216 4.33333 12.188 4.33333 13.2573 4.33333H18.7413C19.812 4.33333 20.784 4.33333 21.6667 4.35066V3.33333C21.6667 3.06811 21.772 2.81376 21.9596 2.62622C22.1471 2.43869 22.4014 2.33333 22.6667 2.33333C22.9319 2.33333 23.1862 2.43869 23.3738 2.62622C23.5613 2.81376 23.6667 3.06811 23.6667 3.33333V4.43599C24.0133 4.46266 24.3418 4.49644 24.652 4.53733C26.2147 4.748 27.48 5.19066 28.4787 6.18799C29.476 7.18666 29.9187 8.45199 30.1293 10.0147C30.3333 11.5347 30.3333 13.4747 30.3333 15.9253V18.7413C30.3333 21.192 30.3333 23.1333 30.1293 24.652C29.9187 26.2147 29.476 27.48 28.4787 28.4787C27.48 29.476 26.2147 29.9187 24.652 30.1293C23.132 30.3333 21.192 30.3333 18.7413 30.3333H13.26C10.8093 30.3333 8.868 30.3333 7.34933 30.1293C5.78667 29.9187 4.52133 29.476 3.52267 28.4787C2.52533 27.48 2.08267 26.2147 1.872 24.652C1.668 23.132 1.668 21.192 1.668 18.7413V15.9253C1.668 13.4747 1.668 11.5333 1.872 10.0147C2.08267 8.45199 2.52533 7.18666 3.52267 6.18799C4.52133 5.19066 5.78667 4.748 7.34933 4.53733C7.66044 4.49644 7.98889 4.46266 8.33467 4.43599V3.33333C8.33467 3.06834 8.43984 2.81419 8.62709 2.62669C8.81434 2.43919 9.06835 2.33368 9.33333 2.33333ZM7.61333 6.51999C6.27333 6.69999 5.5 7.03866 4.936 7.60266C4.372 8.16666 4.03333 8.93999 3.85333 10.28C3.82311 10.5067 3.79733 10.7462 3.776 10.9987H28.224C28.2027 10.7462 28.1769 10.5062 28.1467 10.2787C27.9667 8.93866 27.628 8.16533 27.064 7.60133C26.5 7.03733 25.7267 6.69866 24.3853 6.51866C23.016 6.33466 21.2093 6.332 18.6667 6.332H13.3333C10.7907 6.332 8.98533 6.33599 7.61333 6.51999ZM3.66667 16C3.66667 14.8613 3.66667 13.8707 3.684 13H28.316C28.3333 13.8707 28.3333 14.8613 28.3333 16V18.6667C28.3333 21.2093 28.3307 23.016 28.1467 24.3867C27.9667 25.7267 27.628 26.5 27.064 27.064C26.5 27.628 25.7267 27.9667 24.3853 28.1467C23.016 28.3307 21.2093 28.3333 18.6667 28.3333H13.3333C10.7907 28.3333 8.98533 28.3307 7.61333 28.1467C6.27333 27.9667 5.5 27.628 4.936 27.064C4.372 26.5 4.03333 25.7267 3.85333 24.3853C3.66933 23.016 3.66667 21.2093 3.66667 18.6667V16Z" fill="currentcolor"/>
<path d="M7.61333 6.51999C6.27333 6.69999 5.5 7.03866 4.936 7.60266C4.372 8.16666 4.03333 8.93999 3.85333 10.28C3.82311 10.5067 3.79733 10.7462 3.776 10.9987H28.224C28.2027 10.7462 28.1769 10.5062 28.1467 10.2787C27.9667 8.93866 27.628 8.16533 27.064 7.60133C26.5 7.03733 25.7267 6.69866 24.3853 6.51866C23.016 6.33466 21.2093 6.332 18.6667 6.332H13.3333C10.7907 6.332 8.98533 6.33599 7.61333 6.51999Z" fill="currentcolor"/>
</svg>
