<svg width="32" height="32" viewBox="0 0 32 32" fill="none" xmlns="http://www.w3.org/2000/svg">
<path d="M12 5.94667C13.2934 5.53574 14.6429 5.32882 16 5.33333C21.576 5.33333 25.3707 8.66667 27.6333 11.6053C28.7667 13.08 29.3333 13.8147 29.3333 16C29.3333 18.1867 28.7667 18.9213 27.6333 20.3947C25.3707 23.3333 21.576 26.6667 16 26.6667C10.424 26.6667 6.62933 23.3333 4.36667 20.3947C3.23333 18.9227 2.66667 18.1853 2.66667 16C2.66667 13.8133 3.23333 13.0787 4.36667 11.6053C5.058 10.7024 5.82765 9.86228 6.66667 9.09467" stroke="currentcolor" stroke-width="2" stroke-linecap="round"/>
<path d="M20 16C20 17.0609 19.5786 18.0783 18.8284 18.8284C18.0783 19.5786 17.0609 20 16 20C14.9391 20 13.9217 19.5786 13.1716 18.8284C12.4214 18.0783 12 17.0609 12 16C12 14.9391 12.4214 13.9217 13.1716 13.1716C13.9217 12.4214 14.9391 12 16 12C17.0609 12 18.0783 12.4214 18.8284 13.1716C19.5786 13.9217 20 14.9391 20 16Z" stroke="currentcolor" stroke-width="2"/>
</svg>
