<svg width="32" height="32" viewBox="0 0 32 32" fill="none" xmlns="http://www.w3.org/2000/svg">
<path d="M4.06668 12.4133C4.01 12.2441 3.98789 12.0651 4.00165 11.8872C4.01541 11.7092 4.06476 11.5358 4.14678 11.3773C4.2288 11.2187 4.34182 11.0783 4.47914 10.9643C4.61645 10.8502 4.77527 10.7649 4.94617 10.7134C5.11707 10.6619 5.29658 10.6452 5.47404 10.6643C5.65151 10.6835 5.82333 10.7381 5.97931 10.8248C6.13528 10.9116 6.27225 11.0289 6.38208 11.1696C6.4919 11.3103 6.57236 11.4716 6.61868 11.644C9.40001 20.9587 22.5947 20.96 25.3787 11.6493C25.4286 11.4814 25.5111 11.325 25.6214 11.1889C25.7318 11.0529 25.8679 10.9399 26.0219 10.8565C26.1759 10.773 26.3449 10.7207 26.5191 10.7026C26.6933 10.6844 26.8694 10.7008 27.0373 10.7507C27.2053 10.8006 27.3617 10.883 27.4977 10.9934C27.6338 11.1038 27.7468 11.2399 27.8302 11.3939C27.9137 11.5479 27.9659 11.7168 27.9841 11.8911C28.0023 12.0653 27.9859 12.2414 27.936 12.4093C27.4512 14.0777 26.6284 15.6285 25.5187 16.9653L27.2187 18.6667C27.4616 18.9181 27.5959 19.2549 27.5929 19.6045C27.5899 19.9541 27.4496 20.2885 27.2024 20.5358C26.9552 20.783 26.6208 20.9232 26.2712 20.9262C25.9216 20.9293 25.5848 20.7949 25.3333 20.552L23.5853 18.804C22.6421 19.5156 21.6 20.0856 20.492 20.496L20.968 22.276C21.0188 22.4467 21.0348 22.6259 21.0152 22.8029C20.9956 22.98 20.9407 23.1513 20.8538 23.3068C20.7669 23.4623 20.6497 23.5987 20.5091 23.7082C20.3686 23.8176 20.2075 23.8977 20.0355 23.9439C19.8634 23.99 19.6839 24.0013 19.5074 23.9769C19.331 23.9525 19.1612 23.893 19.0081 23.8019C18.8551 23.7108 18.7218 23.5899 18.6162 23.4465C18.5106 23.303 18.4348 23.1399 18.3933 22.9667L17.908 21.1573C16.6453 21.344 15.3547 21.344 14.092 21.1573L13.6067 22.9667C13.5652 23.1399 13.4894 23.303 13.3838 23.4465C13.2782 23.5899 13.145 23.7108 12.9919 23.8019C12.8388 23.893 12.669 23.9525 12.4926 23.9769C12.3161 24.0013 12.1366 23.99 11.9646 23.9439C11.7925 23.8977 11.6315 23.8176 11.4909 23.7082C11.3504 23.5987 11.2332 23.4623 11.1462 23.3068C11.0593 23.1513 11.0044 22.98 10.9848 22.8029C10.9652 22.6259 10.9812 22.4467 11.032 22.276L11.508 20.496C10.3999 20.0852 9.35782 19.5147 8.41468 18.8027L6.66801 20.552C6.418 20.8024 6.07877 20.9432 5.72495 20.9434C5.37114 20.9437 5.03171 20.8033 4.78135 20.5533C4.53098 20.3033 4.39019 19.9641 4.38994 19.6103C4.38969 19.2565 4.53 18.917 4.78001 18.6667L6.48001 16.9667C5.43468 15.7187 4.60001 14.2013 4.06401 12.4147L4.06668 12.4133Z" fill="currentcolor"/>
</svg>
