<svg width="32" height="32" viewBox="0 0 32 32" fill="currentcolor" xmlns="http://www.w3.org/2000/svg">
<path fill-rule="evenodd" clip-rule="evenodd" d="M5.56267 4.22934C4 5.79067 4 8.30534 4 13.3333V18.6667C4 23.6947 4 26.2093 5.56267 27.7707C7.12533 29.332 9.63867 29.3333 14.6667 29.3333H17.3333C22.3613 29.3333 24.876 29.3333 26.4373 27.7707C27.9987 26.208 28 23.6947 28 18.6667V13.3333C28 8.30534 28 5.79067 26.4373 4.22934C24.8747 2.668 22.3613 2.66667 17.3333 2.66667H14.6667C9.63867 2.66667 7.124 2.66667 5.56267 4.22934ZM10.6667 12.3333C10.4015 12.3333 10.1471 12.4387 9.95956 12.6262C9.77202 12.8138 9.66667 13.0681 9.66667 13.3333C9.66667 13.5986 9.77202 13.8529 9.95956 14.0404C10.1471 14.228 10.4015 14.3333 10.6667 14.3333H21.3333C21.5986 14.3333 21.8529 14.228 22.0404 14.0404C22.228 13.8529 22.3333 13.5986 22.3333 13.3333C22.3333 13.0681 22.228 12.8138 22.0404 12.6262C21.8529 12.4387 21.5986 12.3333 21.3333 12.3333H10.6667ZM10.6667 17.6667C10.4015 17.6667 10.1471 17.772 9.95956 17.9596C9.77202 18.1471 9.66667 18.4015 9.66667 18.6667C9.66667 18.9319 9.77202 19.1862 9.95956 19.3738C10.1471 19.5613 10.4015 19.6667 10.6667 19.6667H17.3333C17.5985 19.6667 17.8529 19.5613 18.0404 19.3738C18.228 19.1862 18.3333 18.9319 18.3333 18.6667C18.3333 18.4015 18.228 18.1471 18.0404 17.9596C17.8529 17.772 17.5985 17.6667 17.3333 17.6667H10.6667Z" fill="currentcolor"/>
</svg>
