<svg width="14" height="14" viewBox="0 0 14 14" fill="none" xmlns="http://www.w3.org/2000/svg">
<path d="M7 2.25C7.02202 2.25 7.04298 2.25889 7.05859 2.27441C7.07414 2.28996 7.08292 2.31102 7.08301 2.33301V6.91699H11.667C11.689 6.91708 11.71 6.92586 11.7256 6.94141C11.7411 6.95702 11.75 6.97797 11.75 7C11.75 7.02203 11.7411 7.04298 11.7256 7.05859C11.71 7.07414 11.689 7.08292 11.667 7.08301H7.08301V11.667C7.08292 11.689 7.07414 11.71 7.05859 11.7256C7.04298 11.7411 7.02203 11.75 7 11.75C6.97797 11.75 6.95702 11.7411 6.94141 11.7256C6.92586 11.71 6.91708 11.689 6.91699 11.667V7.08301H2.33301C2.31102 7.08292 2.28996 7.07414 2.27441 7.05859C2.25889 7.04298 2.25 7.02202 2.25 7L2.25586 6.96777C2.25998 6.95787 2.26671 6.94915 2.27441 6.94141C2.28996 6.92586 2.31102 6.91708 2.33301 6.91699H6.91699V2.33301C6.91708 2.31102 6.92586 2.28996 6.94141 2.27441C6.94915 2.26671 6.95787 2.25998 6.96777 2.25586L7 2.25Z" fill="black" stroke="#0066FE"/>
</svg>
