<svg width="32" height="32" viewBox="0 0 32 32" fill="none" xmlns="http://www.w3.org/2000/svg">
<path d="M26 7.33334L25.1733 20.7C24.9627 24.1147 24.8573 25.8227 24 27.0507C23.5768 27.6576 23.0319 28.1698 22.4 28.5547C21.124 29.3333 19.4133 29.3333 15.992 29.3333C12.5653 29.3333 10.852 29.3333 9.57333 28.5533C8.94118 28.1676 8.39628 27.6545 7.97333 27.0467C7.11733 25.8173 7.01333 24.1067 6.808 20.6867L6 7.33334M4 7.33334H28M21.408 7.33334L20.4973 5.45601C19.8933 4.20801 19.5907 3.58534 19.0693 3.19601C18.9535 3.10976 18.8309 3.03306 18.7027 2.96667C18.1253 2.66667 17.432 2.66667 16.0467 2.66667C14.6253 2.66667 13.9147 2.66667 13.3267 2.97867C13.1967 3.04829 13.0727 3.12856 12.956 3.21867C12.4293 3.62267 12.1347 4.26934 11.5453 5.56134L10.7373 7.33334M12.6667 22V14M19.3333 22V14" stroke="currentcolor" stroke-width="2" stroke-linecap="round" stroke-linejoin="round"/>
</svg>
