<svg width="12" height="12" viewBox="0 0 12 12" fill="none" xmlns="http://www.w3.org/2000/svg">
<path d="M5.29315 1.49982L2.00015 4.79282C1.86021 4.93266 1.76491 5.11087 1.72628 5.3049C1.68765 5.49892 1.70744 5.70004 1.78315 5.88282L1.81715 5.95532C1.901 6.11921 2.02847 6.25676 2.18551 6.35284C2.34254 6.44891 2.52305 6.49977 2.70715 6.49982H4.00015V7.49982C4.00015 7.63243 4.05283 7.7596 4.14659 7.85337C4.24036 7.94714 4.36754 7.99982 4.50015 7.99982H7.50015L7.55865 7.99632C7.68027 7.98199 7.79241 7.92352 7.87379 7.832C7.95517 7.74049 8.00013 7.62228 8.00015 7.49982L7.99965 6.49982H9.29315C9.4909 6.49978 9.6842 6.4411 9.84861 6.33122C10.013 6.22134 10.1412 6.06517 10.2168 5.88247C10.2925 5.69977 10.3123 5.49874 10.2737 5.30479C10.2352 5.11083 10.14 4.93267 10.0001 4.79282L6.70715 1.49982C6.51962 1.31235 6.26531 1.20703 6.00015 1.20703C5.73498 1.20703 5.48068 1.31235 5.29315 1.49982ZM7.50015 9.99982C7.62759 9.99996 7.75016 10.0488 7.84283 10.1362C7.9355 10.2237 7.99127 10.3433 7.99873 10.4705C8.0062 10.5977 7.96481 10.723 7.88302 10.8207C7.80122 10.9185 7.6852 10.9813 7.55865 10.9963L7.50015 10.9998H4.50015C4.37271 10.9997 4.25013 10.9509 4.15746 10.8634C4.0648 10.7759 4.00903 10.6563 4.00156 10.5291C3.99409 10.4019 4.03548 10.2766 4.11728 10.1789C4.19907 10.0812 4.3151 10.0184 4.44165 10.0033L4.50015 9.99982H7.50015ZM7.50015 8.49982C7.62759 8.49996 7.75016 8.54876 7.84283 8.63624C7.9355 8.72373 7.99127 8.84329 7.99873 8.97052C8.0062 9.09774 7.96481 9.22301 7.88302 9.32073C7.80122 9.41846 7.6852 9.48127 7.55865 9.49632L7.50015 9.49982H4.50015C4.37271 9.49968 4.25013 9.45088 4.15746 9.36339C4.0648 9.27591 4.00903 9.15634 4.00156 9.02912C3.99409 8.9019 4.03548 8.77663 4.11728 8.6789C4.19907 8.58118 4.3151 8.51837 4.44165 8.50332L4.50015 8.49982H7.50015Z" fill="#0095FF" fill-opacity="0.8"/>
</svg>
